<svg width="191" height="28" viewBox="0 0 191 28" fill="none" xmlns="http://www.w3.org/2000/svg">
<path d="M7.168 19.296V-1.04904e-05H14.752C16.32 0.0319891 17.664 0.575989 18.784 1.63199C19.904 2.65599 20.464 4.07999 20.464 5.90399C20.464 6.54399 20.384 7.15199 20.224 7.72799C20.096 8.27199 19.904 8.76799 19.648 9.21599C20.512 10.272 20.944 11.6 20.944 13.2C20.944 15.152 20.368 16.656 19.216 17.712C18.096 18.768 16.736 19.296 15.136 19.296H7.168ZM4 19.296V-1.04904e-05H5.44V19.296H4ZM14.656 1.43999H8.608V3.16799H14.752C15.52 3.19999 16.128 3.47199 16.576 3.98399C17.056 4.46399 17.296 5.10399 17.296 5.90399C17.296 6.51199 17.168 7.02399 16.912 7.43999C17.52 7.63199 18.064 7.88799 18.544 8.20799C18.864 7.53599 19.024 6.76799 19.024 5.90399C19.024 4.43199 18.592 3.32799 17.728 2.59199C16.896 1.82399 15.872 1.43999 14.656 1.43999ZM14.656 4.60799H8.608V7.19999H15.136C15.232 7.19999 15.328 7.19999 15.424 7.19999C15.552 7.03999 15.648 6.86399 15.712 6.67199C15.808 6.44799 15.856 6.19199 15.856 5.90399C15.856 5.45599 15.744 5.13599 15.52 4.94399C15.296 4.71999 15.008 4.60799 14.656 4.60799ZM15.088 8.63999H8.608V10.368H15.136C15.936 10.368 16.576 10.624 17.056 11.136C17.536 11.648 17.776 12.336 17.776 13.2C17.776 14.096 17.536 14.816 17.056 15.36C16.576 15.872 15.936 16.128 15.136 16.128H8.608V17.856H15.088C16.304 17.856 17.344 17.472 18.208 16.704C19.072 15.936 19.504 14.768 19.504 13.2C19.504 11.696 19.072 10.56 18.208 9.79199C17.344 9.02399 16.304 8.63999 15.088 8.63999ZM15.088 11.808H8.608V14.688H15.088C15.44 14.688 15.728 14.576 15.952 14.352C16.208 14.128 16.336 13.744 16.336 13.2C16.336 12.688 16.208 12.336 15.952 12.144C15.728 11.92 15.44 11.808 15.088 11.808ZM26.2169 19.296L33.2249 -1.04904e-05H34.7609L41.7689 19.296H40.2329L33.9929 2.11199L33.0809 4.60799L38.4089 19.296H36.8729L36.0569 16.992H28.5689L27.7529 19.296H26.2169ZM22.8569 19.296L29.8649 -1.04904e-05H31.4009L24.3929 19.296H22.8569ZM30.2489 12.384H34.3769L32.3129 6.71999L30.2489 12.384ZM29.0969 15.552H35.5289L34.9049 13.824H29.7209L29.0969 15.552ZM47.3399 19.296V-1.04904e-05H52.1399C54.1559 0.0319891 55.9319 0.463989 57.4679 1.29599C59.0039 2.12799 60.2039 3.26399 61.0679 4.70399C61.9639 6.14399 62.4119 7.79199 62.4119 9.64799C62.4119 11.504 61.9639 13.168 61.0679 14.64C60.2039 16.08 58.9879 17.216 57.4199 18.048C55.8839 18.88 54.1239 19.296 52.1399 19.296H47.3399ZM44.1719 19.296V-1.04904e-05H45.6119V19.296H44.1719ZM51.9959 1.43999H48.7799V3.16799H52.1399C54.2519 3.19999 55.9639 3.80799 57.2759 4.99199C58.5879 6.17599 59.2439 7.72799 59.2439 9.64799C59.2439 11.6 58.5719 13.168 57.2279 14.352C55.9159 15.536 54.2199 16.128 52.1399 16.128H48.7799V17.856H51.9959C53.7879 17.856 55.3559 17.52 56.6999 16.848C58.0439 16.144 59.0839 15.168 59.8199 13.92C60.5879 12.672 60.9719 11.248 60.9719 9.64799C60.9719 8.01599 60.5879 6.59199 59.8199 5.37599C59.0839 4.12799 58.0439 3.16799 56.6999 2.49599C55.3559 1.79199 53.7879 1.43999 51.9959 1.43999ZM51.9959 4.60799H48.7799V14.688H51.9959C53.7879 14.688 55.1959 14.24 56.2199 13.344C57.2759 12.448 57.8039 11.216 57.8039 9.64799C57.8039 8.07999 57.2759 6.84799 56.2199 5.95199C55.1959 5.05599 53.7879 4.60799 51.9959 4.60799ZM67.2325 19.296L74.2405 -1.04904e-05H75.7765L82.7845 19.296H81.2485L75.0085 2.11199L74.0965 4.60799L79.4245 19.296H77.8885L77.0725 16.992H69.5845L68.7685 19.296H67.2325ZM63.8725 19.296L70.8805 -1.04904e-05H72.4165L65.4085 19.296H63.8725ZM71.2645 12.384H75.3925L73.3285 6.71999L71.2645 12.384ZM70.1125 15.552H76.5445L75.9205 13.824H70.7365L70.1125 15.552ZM85.1875 19.296V-1.04904e-05H86.6275V19.296H85.1875ZM103.956 19.296V-1.04904e-05H105.396V19.296H103.956ZM88.3555 19.296V-1.04904e-05H89.7955L95.2675 6.86399L100.788 -1.04904e-05H102.228V19.296H100.788V7.34399L97.3315 11.76L89.7955 2.30399V5.08799L96.2275 13.104L95.3155 14.256L89.7955 7.39199V19.296H88.3555ZM100.788 2.25599L96.2275 8.01599L97.3315 9.40799L100.788 5.03999V2.25599ZM122.688 19.296V-1.04904e-05H124.128V19.296H122.688ZM141.456 19.296V-1.04904e-05H142.896V19.296H141.456ZM125.856 19.296V-1.04904e-05H127.296L132.768 6.86399L138.288 -1.04904e-05H139.728V19.296H138.288V7.34399L134.832 11.76L127.296 2.30399V5.08799L133.728 13.104L132.816 14.256L127.296 7.39199V19.296H125.856ZM138.288 2.25599L133.728 8.01599L134.832 9.40799L138.288 5.03999V2.25599ZM149.902 19.296V-1.04904e-05H151.342V19.296H149.902ZM146.734 19.296V-1.04904e-05H148.174V19.296H146.734ZM158.34 19.296V-1.04904e-05H159.78V14.688H168.372V16.128H159.78V17.856H168.372V19.296H158.34ZM155.172 19.296V-1.04904e-05H156.612V19.296H155.172ZM185.032 19.296L176.2 8.25599L180.904 -1.04904e-05H182.584L177.928 8.11199L179.08 9.55199L184.6 -1.04904e-05H186.28L180.04 10.704L186.904 19.296H185.032ZM174.184 19.296V-1.04904e-05H175.624V10.272L182.824 19.296H181L175.624 12.576V19.296H174.184ZM171.016 19.296V-1.04904e-05H172.456V19.296H171.016Z" fill="black"/>
</svg>
